<?xml version="1.0" encoding="utf-8"?>
<!-- Generator: Adobe Illustrator 16.0.0, SVG Export Plug-In . SVG Version: 6.00 Build 0)  -->
<!DOCTYPE svg PUBLIC "-//W3C//DTD SVG 1.1//EN" "http://www.w3.org/Graphics/SVG/1.1/DTD/svg11.dtd">
<svg version="1.1"
	 id="Layer_1" xmlns:dc="http://purl.org/dc/elements/1.1/" xmlns:cc="http://creativecommons.org/ns#" xmlns:rdf="http://www.w3.org/1999/02/22-rdf-syntax-ns#" xmlns:svg="http://www.w3.org/2000/svg" xmlns:sodipodi="http://sodipodi.sourceforge.net/DTD/sodipodi-0.dtd" xmlns:inkscape="http://www.inkscape.org/namespaces/inkscape" inkscape:export-ydpi="300.06229" inkscape:export-xdpi="300.06229" inkscape:export-filename="/home/niko/Escritorio/Gimp/voyager_plaque.png" inkscape:output_extension="org.inkscape.output.svg.inkscape" sodipodi:docname="voyager_plaque.svg" inkscape:version="0.46" sodipodi:version="0.32"
	 xmlns="http://www.w3.org/2000/svg" xmlns:xlink="http://www.w3.org/1999/xlink" x="0px" y="0px" width="606px" height="600px"
	 viewBox="0 0 606 600" enable-background="new 0 0 606 600" xml:space="preserve">
<g id="layer1" inkscape:label="Capa 1" inkscape:groupmode="layer">
	
		<path id="path3272" sodipodi:ry="252.5" sodipodi:rx="241.49872" sodipodi:cy="523.86218" sodipodi:cx="362.5" sodipodi:type="arc" fill="#F3D18D" stroke="#000000" d="
		M592.177,300c0.029,159.558-130.063,288.929-290.568,288.958C141.104,588.988,10.965,459.662,10.936,300.104
		c0-0.034,0-0.069,0-0.104C10.907,140.441,140.999,11.07,301.504,11.042c160.506-0.029,290.645,129.296,290.673,288.854
		C592.177,299.931,592.177,299.965,592.177,300z"/>
	
		<path id="path2472" sodipodi:ry="53.209785" sodipodi:rx="51.442017" sodipodi:cy="420.73904" sodipodi:cx="260.03851" sodipodi:type="arc" fill="#F3D18D" stroke="#000000" d="
		M227.255,180.701c0,37.166-30.225,67.296-67.508,67.296s-67.508-30.13-67.508-67.296c0-37.167,30.225-67.296,67.508-67.296
		S227.255,143.534,227.255,180.701z"/>
	
		<path id="path2474" sodipodi:ry="10.783379" sodipodi:rx="11.755651" sodipodi:cy="415.08218" sodipodi:cx="241.03502" sodipodi:type="arc" fill="#F3D18D" stroke="#000000" d="
		M172.714,181.443c0.007,7.221-5.793,13.079-12.955,13.087c-7.162,0.007-12.973-5.841-12.98-13.061c0-0.009,0-0.018,0-0.026
		c-0.007-7.221,5.793-13.079,12.955-13.087c7.162-0.007,12.973,5.841,12.98,13.061C172.714,181.425,172.714,181.434,172.714,181.443
		z"/>
	
		<path id="path2476" sodipodi:ry="2.3864853" sodipodi:rx="2.3864853" sodipodi:cy="414.46347" sodipodi:cx="241.38858" sodipodi:type="arc" fill="#F3D18D" stroke="#000000" d="
		M163.141,181.655c0,1.582-1.282,2.864-2.864,2.864s-2.864-1.282-2.864-2.864c0-1.581,1.282-2.863,2.864-2.863
		S163.141,180.074,163.141,181.655z"/>
	<rect id="rect2478" x="358.398" y="328.439" fill="#F3D18D" stroke="#000000" width="79.146" height="59.631"/>
	
		<path id="path2480" sodipodi:ry="15.379573" sodipodi:rx="16.882174" sodipodi:cy="563.22107" sodipodi:cx="439.55527" sodipodi:type="arc" fill="#F3D18D" stroke="#000000" d="
		M416.766,357.512c0.005,10.439-8.358,18.906-18.68,18.91c-10.321,0.006-18.693-8.453-18.698-18.893c0-0.006,0-0.012,0-0.018
		c-0.005-10.438,8.359-18.904,18.681-18.91c10.321-0.004,18.692,8.455,18.697,18.893C416.766,357.5,416.766,357.506,416.766,357.512
		z"/>
	<rect id="rect2482" x="358.291" y="260.239" fill="#F3D18D" stroke="#000000" width="78.936" height="59.632"/>
	<path id="path2498" fill="#F3D18D" stroke="#000000" d="M358.408,194.17l36.486,38.396l11.88-35.427l37.123,38.608l11.879-36.486
		l36.911,38.82l10.183-37.548l4.667,3.606h0.212"/>
	
		<path id="path2520" sodipodi:ry="2.563262" sodipodi:rx="2.7400389" sodipodi:cy="434.96957" sodipodi:cx="417.81171" sodipodi:type="arc" fill="#F3D18D" stroke="#000000" d="
		M374.712,207.535c0,1.857-1.459,3.363-3.258,3.363s-3.257-1.506-3.257-3.363s1.458-3.362,3.257-3.362
		S374.712,205.677,374.712,207.535z"/>
	
		<path id="path2522" sodipodi:ry="2.563262" sodipodi:rx="2.7400389" sodipodi:cy="434.96957" sodipodi:cx="417.81171" sodipodi:type="arc" fill="#F3D18D" stroke="#000000" d="
		M366.544,199.474c0,1.857-1.458,3.363-3.257,3.363s-3.257-1.506-3.257-3.363s1.458-3.363,3.257-3.363
		S366.544,197.617,366.544,199.474z"/>
	
		<path id="path2524" sodipodi:ry="2.563262" sodipodi:rx="2.7400389" sodipodi:cy="434.96957" sodipodi:cx="417.81171" sodipodi:type="arc" fill="#F3D18D" stroke="#000000" d="
		M418.305,205.414c0,1.857-1.458,3.363-3.257,3.363s-3.258-1.506-3.258-3.363s1.459-3.363,3.258-3.363
		S418.305,203.556,418.305,205.414z"/>
	
		<path id="path2526" sodipodi:ry="2.563262" sodipodi:rx="2.7400389" sodipodi:cy="434.96957" sodipodi:cx="417.81171" sodipodi:type="arc" fill="#F3D18D" stroke="#000000" d="
		M425.093,212.626c0,1.857-1.458,3.363-3.257,3.363s-3.257-1.506-3.257-3.363s1.458-3.363,3.257-3.363
		S425.093,210.769,425.093,212.626z"/>
	
		<path id="path2528" sodipodi:ry="2.563262" sodipodi:rx="2.7400389" sodipodi:cy="434.96957" sodipodi:cx="417.81171" sodipodi:type="arc" fill="#F3D18D" stroke="#000000" d="
		M463.701,203.716c0,1.857-1.459,3.363-3.258,3.363s-3.257-1.506-3.257-3.363s1.458-3.362,3.257-3.362
		S463.701,201.859,463.701,203.716z"/>
	
		<path id="path2530" sodipodi:ry="2.563262" sodipodi:rx="2.7400389" sodipodi:cy="434.96957" sodipodi:cx="417.81171" sodipodi:type="arc" fill="#F3D18D" stroke="#000000" d="
		M470.913,211.141c0,1.857-1.458,3.363-3.257,3.363s-3.257-1.506-3.257-3.363s1.458-3.363,3.257-3.363
		S470.913,209.284,470.913,211.141z"/>
	<path id="path2782" fill="#F3D18D" stroke="#000000" stroke-linecap="round" stroke-linejoin="round" d="M381.351,503.658
		c-0.375,0-0.625-0.236-0.625-0.588c0-0.236,0.25-0.588,0.625-0.588c0.374,0,0.624,0.352,0.624,0.588
		C381.975,503.422,381.725,503.658,381.351,503.658z M430.037,524.344c-6.99,0-12.733-5.643-12.733-12.459
		s5.743-12.459,12.733-12.459c7.116,0,12.858,5.643,12.858,12.459S437.153,524.344,430.037,524.344z M430.287,509.064
		c-0.374,0-0.624-0.354-0.624-0.588c0-0.354,0.25-0.588,0.624-0.588c0.25,0,0.499,0.234,0.499,0.588
		C430.786,508.711,430.537,509.064,430.287,509.064z M430.162,508.477l0.125,6.348 M430.037,496.605l0.125,6.348 M430.037,496.959
		c-0.374,0-0.624-0.236-0.624-0.588c0-0.236,0.25-0.471,0.624-0.471c0.25,0,0.5,0.234,0.5,0.471
		C430.537,496.723,430.287,496.959,430.037,496.959z M381.475,509.064l0.125,6.346 M381.475,509.535
		c-0.374,0-0.624-0.236-0.624-0.588c0-0.236,0.25-0.588,0.624-0.588c0.25,0,0.5,0.352,0.5,0.588
		C381.975,509.299,381.725,509.535,381.475,509.535z M381.226,496.723l0.125,6.348 M381.351,524.932
		c-6.991,0-12.734-5.643-12.734-12.459c0-6.934,5.743-12.459,12.734-12.459c7.115,0,12.858,5.525,12.858,12.459
		C394.209,519.289,388.466,524.932,381.351,524.932z"/>
	<path id="path2818" fill="#F3D18D" stroke="#000000" stroke-linecap="round" stroke-linejoin="round" d="M395.751,511.777
		l18.947-0.289"/>
	<path id="path2820" fill="#F3D18D" stroke="#000000" stroke-linecap="round" stroke-linejoin="round" d="M405.347,515.24v-2.309"/>
	<path id="path2846" fill="#F3D18D" stroke="#000000" stroke-linecap="round" stroke-linejoin="round" d="M190.886,434.58
		l57.002-73.1 M189.253,436.664l-3.641,4.662 M244.999,363.566l1.382,1.104 M248.39,359.52l1.381,0.98 M249.144,358.537l1.381,0.982
		 M249.771,357.68l1.381,0.98 M250.398,356.82l1.382,0.982 M253.788,352.527l1.381,0.982 M256.048,349.584l1.382,0.982
		 M256.677,348.727l1.381,0.98 M257.304,347.867l1.381,0.98 M258.058,346.887l1.381,1.104 M258.685,346.027l1.508,0.98
		 M264.084,339.16l1.381,1.104 M264.837,338.301l1.381,0.98 M265.465,337.441l1.382,0.982 M267.726,334.498l1.381,0.982
		 M272.999,327.631l1.381,0.98 M273.626,326.771l1.381,0.982 M274.38,325.914l1.381,0.98 M276.263,324.809l1.004-1.348
		 M275.007,324.932l1.382,1.104 M272.12,330.205l1.004-1.348 M270.487,332.291l1.004-1.35 M268.98,334.254l1.005-1.35
		 M266.721,337.197l1.005-1.35 M263.079,341.734l1.131-1.348 M261.573,343.82l1.004-1.35 M259.94,345.783l1.131-1.35
		 M255.044,352.16l1.13-1.35 M253.035,354.857l1.005-1.348 M251.528,356.697l1.131-1.348"/>
	<path id="path2848" fill="#F3D18D" stroke="#000000" stroke-linecap="round" stroke-linejoin="round" d="M180.339,438.014
		l5.273,3.434 M178.707,436.91l-7.408-5.152 M171.299,432.863l1.004-1.35 M168.663,431.268l1.004-1.471 M167.909,430.654
		l0.879-1.348 M167.03,430.164l1.004-1.471 M166.151,429.551l1.004-1.35 M159.623,424.891l0.879-1.473 M158.744,424.277l1.004-1.35
		 M157.99,423.787l0.879-1.473 M157.111,423.174l1.004-1.35 M148.574,417.408l1.004-1.348 M147.695,416.918l1.004-1.471
		 M146.941,416.305l1.004-1.35 M146.063,415.814l1.004-1.473 M156.358,422.684l1.004-1.473 M155.479,422.07l1.005-1.35
		 M145.309,415.201l0.879-1.35 M133.507,407.352l1.004-1.35 M132.754,406.861l0.879-1.473 M136.395,409.191l1.004-1.471
		 M132.503,405.512l-1.381-0.857 M136.27,408.088l-1.507-0.98 M138.906,409.928l-1.381-0.982 M141.041,411.277l-1.507-0.982
		 M143.049,412.625l-1.381-0.857 M145.058,413.975l-1.506-0.857 M151.21,418.145l-1.507-0.857 M152.968,419.494l-1.381-0.98
		 M155.103,420.844l-1.381-0.859 M162.259,425.748l-1.381-0.98 M164.143,426.975l-1.507-0.98 M166.026,428.201l-1.381-0.857"/>
	<path id="path2850" fill="#F3D18D" stroke="#000000" stroke-linecap="round" stroke-linejoin="round" d="M185.11,447.826
		l0.502-6.379l3.516,5.643 M190.383,449.053l70.938,110.996 M226.794,511.111l1.381-0.98 M228.678,512.584l-0.879-1.473
		 M229.933,514.547l-0.879-1.473 M231.188,516.51l-0.879-1.473 M232.444,518.471L231.565,517 M233.7,520.434l-0.879-1.473
		 M233.197,521.293l1.507-0.859 M233.7,522.15l1.506-0.98 M235.708,523.5l-1.004-1.473 M235.708,525.34l1.508-0.982
		 M238.848,528.527l-0.879-1.471 M236.587,526.566l1.508-0.859 M240.479,530.98l-1.004-1.471 M240.103,532.207l1.508-0.857
		 M242.237,535.396l1.381-0.98 M242.739,536.256l1.507-0.859 M244.749,537.727l-0.879-1.471 M247.134,543.123l1.381-0.98
		 M242.363,533.926l-1.005-1.473 M246.13,539.936l-0.879-1.473 M247.511,542.02l-0.879-1.35 M249.144,544.596l-0.879-1.473
		 M250.398,546.436l-0.879-1.35 M250.022,547.416l1.506-0.859 M250.524,548.396l1.506-0.98 M251.151,549.256l1.508-0.859
		 M251.654,550.236l1.507-0.857 M253.788,551.832l-0.879-1.473 M255.044,553.672l-0.879-1.35 M256.3,555.633l-0.879-1.471
		 M259.313,558.455l1.381-0.859"/>
	<path id="path2852" fill="#F3D18D" stroke="#000000" stroke-linecap="round" stroke-linejoin="round" d="M179.334,441.816
		l6.278-0.123 M157.739,444.146v-1.717 M177.577,442.061l-23.729,1.473"/>
	<path id="path2906" fill="#F3D18D" stroke="#000000" stroke-linecap="round" stroke-linejoin="round" d="M185.11,447.826
		l0.502-6.379 M184.859,450.033l-3.013,31.766 M180.841,485.111l1.632,0.123 M180.716,486.215l1.758,0.123 M180.59,487.318
		l1.757,0.123 M181.218,490.018l0.125-1.719 M180.967,492.592l0.125-1.717 M180.716,495.168l0.125-1.717 M179.711,495.904
		l1.757,0.123 M179.586,497.008l1.757,0.123 M180.339,499.338l0.126-1.717 M179.334,500.318l1.758,0.123 M179.209,501.424
		l1.758,0.121 M178.833,504.857l1.758,0.123 M178.707,505.961l1.758,0.123 M178.205,511.848l1.758,0.123 M177.828,515.404
		l1.758,0.246 M177.451,519.084l1.758,0.123 M176.823,525.094l1.758,0.123 M176.823,526.076l1.632,0.121 M178.079,521.66
		l0.125-1.717 M177.828,524.236l0.125-1.719 M178.456,518.227l0.125-1.717 M178.833,514.547l0.125-1.717 M179.083,511.111
		l0.125-1.717 M179.334,508.537l0.125-1.596 M179.837,504.121l0.125-1.717 M180.841,484.129l1.758,0.123 M181.218,479.225
		l1.758,0.121 M176.698,527.303l1.632,0.121"/>
	<path id="path2908" fill="#F3D18D" stroke="#000000" stroke-linecap="round" stroke-linejoin="round" d="M191.639,446.844
		l-1.255,1.105 M192.895,449.297l-1.256-1.227 M194.024,449.42l-1.255,1.227 M194.778,450.156l-1.255,1.227 M195.907,452.732
		l-1.255-1.227 M197.665,454.572l-1.255-1.105 M198.544,454.326l-1.255,1.227 M199.8,456.902l-1.256-1.227 M201.307,458.496
		l-1.255-1.227 M202.562,458.742l-1.255,1.227 M203.19,459.477l-1.256,1.227 M204.319,462.053l-1.129-1.227 M205.952,463.646
		l-1.13-1.104 M207.585,465.486l-1.256-1.227 M208.464,465.242l-1.256,1.104 M209.719,467.939l-1.255-1.227 M210.975,468.063
		l-1.256,1.227 M212.229,470.639l-1.255-1.227 M213.108,470.516l-1.255,1.104 M213.862,471.252l-1.256,1.227 M214.615,472.109
		l-1.255,1.227 M215.62,474.439l-1.256-1.104 M216.876,474.563l-1.256,1.104 M217.629,475.299l-1.256,1.227 M218.634,477.629
		l-1.256-1.227 M219.763,477.629l-1.255,1.227 M220.517,478.488l-1.256,1.227 M221.271,479.346l-1.256,1.227 M222.023,480.082
		l-1.256,1.227 M189.379,444.27l-1.255,1.227 M189.379,445.496l-1.255-1.227 M187.747,443.533l-1.883-1.963"/>
	<path id="path2910" fill="#F3D18D" stroke="#000000" stroke-linecap="round" stroke-linejoin="round" d="M308.781,477.752
		l1.633,0.49 M262.577,463.279l-0.502,1.594 M193.271,443.9l66.042,19.256 M191.262,443.41l-5.399-1.963 M251.151,459.969
		l-0.502,1.594 M270.362,465.486l-0.503,1.596 M271.366,465.732l-0.502,1.594 M278.899,467.939l-0.502,1.596 M279.778,468.309
		l-0.502,1.594 M280.657,468.553l-0.502,1.596 M281.661,468.799l-0.502,1.717 M282.54,469.166l-0.502,1.596 M288.316,470.762
		l-0.628,1.717 M295.473,472.846l-0.502,1.717 M296.478,473.215l-0.503,1.594 M299.365,474.072l-0.503,1.594 M300.495,474.439
		l-0.628,1.596 M301.499,474.686l-0.502,1.717 M304.89,475.666l-0.628,1.596 M308.153,476.648l-0.502,1.594 M262.954,464.26
		l1.632,0.492 M265.089,464.873l1.758,0.492 M267.474,465.609l1.633,0.49 M271.617,466.713l1.632,0.492 M273.878,467.449l1.632,0.49
		 M276.012,468.063l1.632,0.613 M283.169,470.148l1.632,0.49 M285.303,470.762l1.632,0.49 M288.441,471.742l1.633,0.49
		 M290.827,472.355l1.632,0.49 M292.962,473.092l1.758,0.49 M296.729,474.195l1.758,0.49 M302.001,475.666l1.758,0.492
		 M305.517,476.771l1.633,0.49"/>
	<path id="path2912" fill="#F3D18D" stroke="#000000" stroke-linecap="round" stroke-linejoin="round" d="M256.551,423.787
		l1.632-0.369 M255.546,423.174l0.377,1.717 M254.542,423.541l0.377,1.596 M252.156,425.014l1.632-0.49 M250.901,424.4l0.376,1.594
		 M248.515,425.871l1.758-0.367 M247.386,425.137l0.502,1.717 M246.381,425.504l0.376,1.594 M245.376,425.748l0.377,1.719
		 M242.991,427.221l1.632-0.367 M240.354,427.957l1.758-0.49 M237.718,428.57l1.758-0.49 M236.713,427.957l0.503,1.717
		 M234.327,429.428l1.758-0.367 M233.448,428.814l0.377,1.719 M230.938,430.287l1.758-0.367 M229.933,429.674l0.503,1.717
		 M227.673,431.268l1.633-0.367 M225.162,431.881l1.758-0.367 M224.157,431.146l0.377,1.594 M221.897,432.617l1.758-0.367
		 M220.894,431.881l0.377,1.717 M219.889,432.25l0.377,1.594 M217.629,433.721l1.632-0.367 M215.243,434.334l1.633-0.367
		 M212.857,434.947l1.632-0.367 M210.472,435.438l1.633-0.367 M208.087,436.051l1.758-0.367 M207.208,435.438l0.377,1.596
		 M195.657,438.381l0.376,1.596 M193.648,439.73l11.425-2.943 M185.612,441.447l5.901-1.227 M259.188,423.174l1.632-0.369"/>
	<path id="path2914" fill="#F3D18D" stroke="#000000" stroke-linecap="round" stroke-linejoin="round" d="M191.388,434.334
		l1.256,1.227 M192.518,434.457l1.13-1.227 M194.15,432.617l1.255-1.227 M195.28,430.164l1.256,1.227 M195.907,429.428l1.256,1.227
		 M197.163,429.307l1.256-1.227 M198.921,427.467l1.131-1.227 M200.052,424.891l1.255,1.227 M201.307,424.768l1.255-1.227
		 M202.437,422.191l1.256,1.227 M203.19,421.457l1.255,1.227 M204.445,421.211l1.256-1.227 M205.575,418.881l1.256,1.104
		 M206.831,418.635l1.256-1.227 M207.961,416.182l1.256,1.105 M208.714,415.324l1.256,1.104 M209.468,414.465l1.256,1.227
		 M210.724,414.342l1.13-1.225 M211.854,411.768l1.255,1.227 M213.108,411.768l1.256-1.227 M214.866,409.805l1.256-1.227
		 M215.997,407.352l1.255,1.227 M217.252,407.107l1.256-1.227 M218.382,404.654l1.256,1.104 M219.136,403.795l1.256,1.227
		 M219.889,402.936l1.256,1.227 M221.145,402.691l1.13-1.104 M222.902,400.852l1.255-1.227 M224.659,399.012l1.131-1.227
		 M185.738,441.693l2.134-1.717"/>
	<path id="path2916" fill="#F3D18D" stroke="#000000" stroke-linecap="round" stroke-linejoin="round" d="M180.339,411.891
		l1.758-0.246 M179.837,408.211l1.758-0.246 M179.586,407.107l1.757-0.246 M179.083,403.672l1.758-0.367 M178.958,402.568
		l1.632-0.246 M178.079,396.559l1.758-0.246 M177.577,393.002l1.632-0.246 M177.326,392.021l1.758-0.369 M176.823,388.465
		l1.632-0.246 M175.945,382.455l1.757-0.246 M174.438,372.273l1.758-0.244 M173.936,369.086l1.758-0.246 M173.81,368.104
		l1.632-0.367 M172.429,359.273l1.632-0.367 M173.685,361.48l-0.251-1.594 M174.062,364.057l-0.251-1.594 M174.563,366.756
		l-0.251-1.596 M175.191,371.416l-0.251-1.717 M175.693,374.727l-0.251-1.717 M176.07,377.18l-0.251-1.717 M176.447,379.389
		l-0.251-1.596 M176.823,381.719l-0.251-1.717 M177.2,384.906l-0.251-1.717 M177.577,387.359l-0.251-1.594 M178.079,390.916
		l-0.251-1.594 M178.833,395.455l-0.251-1.594 M179.334,399.012l-0.251-1.717 M179.711,401.465l-0.251-1.717 M180.339,406.002
		l-0.251-1.594 M181.092,410.785l-0.251-1.594 M181.343,417.654l1.632-0.246 M184.482,433.477l-2.762-19.256 M185.612,441.326
		l-0.879-5.889"/>
	<path id="path2918" fill="#F3D18D" stroke="#000000" stroke-linecap="round" stroke-linejoin="round" d="M140.664,444.146
		l-0.125-1.717 M132.251,444.76l-0.125-1.717 M131.247,444.883l-0.125-1.717 M130.494,443.9l-1.757,0.123 M116.181,445.863
		l-0.125-1.594 M118.692,444.76l-1.632,0.123 M115.302,445.004l-1.758,0.123 M110.405,446.23l-0.125-1.717 M109.401,446.354
		l-0.126-1.717 M108.396,446.477l-0.126-1.717 M99.984,446.967v-1.717 M112.665,445.127l-1.758,0.123 M107.769,445.617h-1.758
		 M105.257,445.74l-1.758,0.123 M102.872,445.986h-1.758 M99.231,446.23h-1.758 M96.72,446.354h-1.758 M127.857,445.004
		l-0.126-1.717 M124.342,445.25v-1.594 M127.355,444.146l-1.758,0.123 M123.965,444.391l-1.758,0.123 M121.454,444.514l-1.758,0.123
		 M147.067,443.656v-1.717 M152.968,443.287l-0.125-1.717 M146.188,443.656l-0.125-1.596 M145.184,443.777l-0.125-1.717
		 M144.179,443.9l-0.125-1.717 M135.014,443.656l-1.758,0.121 M137.399,443.533h-1.758 M139.911,443.287l-1.758,0.123
		 M143.3,443.043l-1.758,0.123 M149.704,442.674h-1.758 M152.089,442.553h-1.758"/>
	<path id="path2920" fill="#F3D18D" stroke="#000000" stroke-linecap="round" stroke-linejoin="round" d="M88.433,451.137
		l-1.758,0.123 M89.438,451.996l-0.251-1.717 M91.446,450.893l-1.632,0.121 M94.083,450.646l-1.632,0.123 M96.343,450.279
		l-1.757,0.244 M98.729,450.156l-1.758,0.123 M100.988,449.91l-1.757,0.123 M102.244,450.523l-0.251-1.594 M104.629,449.543
		l-1.757,0.123 M105.76,450.279l-0.251-1.717 M108.396,449.176l-1.758,0.121 M109.275,449.91l-0.251-1.594 M111.41,448.93
		l-1.758,0.123 M113.921,448.563l-1.632,0.244 M116.181,448.316l-1.758,0.123 M118.692,448.07l-1.632,0.246 M121.203,447.826
		l-1.757,0.244 M122.207,448.684l-0.251-1.717 M123.086,448.563l-0.125-1.719 M124.091,448.439l-0.126-1.717 M126.602,447.336
		l-1.758,0.244 M129.113,447.09l-1.758,0.123 M130.117,447.949l-0.251-1.719 M131.122,447.826l-0.251-1.717 M133.256,446.723
		l-1.757,0.121 M134.386,447.457l-0.251-1.594 M140.79,446.844l-0.251-1.717 M185.612,441.693l-49.845,4.783"/>
	<path id="path2922" fill="#F3D18D" stroke="#000000" stroke-linecap="round" stroke-linejoin="round" d="M157.865,451.627
		l-0.753-1.594 M144.305,455.92l-0.753-1.594 M143.3,456.289l-0.753-1.473 M142.421,456.656l-0.753-1.471 M141.417,457.146
		l-0.753-1.594 M130.117,460.459l-0.753-1.596 M129.113,460.826l-0.753-1.471 M147.82,454.693l-0.879-1.471 M133.507,459.355
		l-0.753-1.596 M150.959,453.713l-0.753-1.594 M154.475,452.486l-0.753-1.473 M156.609,450.893l-1.632,0.734 M153.219,451.873
		l-1.507,0.736 M149.829,453.1l-1.632,0.736 M146.439,454.08l-1.632,0.736 M140.036,456.166l-1.632,0.736 M137.776,457.023
		l-1.632,0.736 M135.642,457.637l-1.507,0.736 M132.377,458.742l-1.632,0.734 M170.797,447.213l-0.753-1.473 M169.918,447.703
		l-0.753-1.473 M164.268,449.42l-0.753-1.471 M163.264,449.91l-0.753-1.594 M158.869,451.137l-0.753-1.594 M162.008,450.279
		l-0.753-1.596 M160.501,449.543l-1.632,0.736 M166.151,447.703l-1.507,0.736 M168.411,446.967l-1.506,0.736 M172.806,445.617
		l-1.632,0.736 M174.187,446.23l-0.753-1.594 M177.2,444.146l-1.507,0.736 M179.711,443.533l5.901-2.086 M182.097,443.533
		l-0.753-1.473"/>
	<path id="path2924" fill="#F3D18D" stroke="#000000" stroke-linecap="round" stroke-linejoin="round" d="M169.29,462.422
		l-1.255-1.227 M168.663,463.156l-1.256-1.104 M166.277,465.855l-1.255-1.227 M165.649,466.713l-1.256-1.227 M161.631,471.375
		l-1.255-1.105 M159.246,474.072l-1.381-1.104 M152.591,482.168l-1.255-1.105 M151.838,483.025l-1.255-1.227 M153.47,479.836
		l-1.255,1.227 M156.358,476.402l-1.255,1.227 M154.852,478.119l-1.256,1.227 M157.865,474.439l-1.13,1.227 M160.376,471.619
		l-1.256,1.227 M162.636,468.922l-1.13,1.227 M164.394,466.959l-1.255,1.227 M167.407,463.279l-1.13,1.227 M176.949,453.346
		l-1.256-1.227 M176.321,454.203l-1.255-1.104 M174.062,456.902l-1.256-1.227 M173.308,457.637l-1.256-1.227 M170.42,459.723
		l-1.255,1.227 M172.052,457.76l-1.13,1.227 M175.066,454.326l-1.256,1.227 M178.079,450.77l-1.13,1.227 M179.209,450.646
		l-1.255-1.104 M180.339,448.07l-1.13,1.227 M181.72,447.826l-1.255-1.104 M182.725,445.373l-1.13,1.227 M184.482,443.287l1.13-1.84
		 M183.854,445.127l-1.255-1.227"/>
	<path id="path2926" fill="#F3D18D" stroke="#000000" stroke-linecap="round" stroke-linejoin="round" d="M185.738,441.326
		l2.134-5.152 M187.872,433.721l1.632,0.613 M188.5,434.457l0.753-1.594 M189.002,431.146l1.632,0.611 M190.132,430.533l0.628-1.596
		 M190.258,427.834l1.632,0.613 M190.635,426.73l1.632,0.736 M191.011,425.748l1.632,0.613 M191.388,424.768l1.632,0.613
		 M193.648,419.248l1.632,0.613 M192.518,424.277l0.627-1.594 M193.396,422.07l0.753-1.596 M194.024,418.145l1.633,0.736
		 M194.401,417.164l1.632,0.613 M194.778,416.182l1.632,0.613 M197.163,410.172l1.633,0.736 M196.033,415.691l0.628-1.594
		 M196.912,413.117l0.753-1.596 M197.54,409.191l1.633,0.613 M197.917,408.211l1.632,0.613 M200.177,402.691l1.507,0.613
		 M200.428,401.709l1.632,0.613 M205.198,389.445l1.633,0.613 M205.575,388.465l1.633,0.613 M206.831,385.275l1.633,0.613
		 M199.047,407.721l0.628-1.596 M199.926,405.389l0.628-1.594 M201.684,401.219l0.628-1.594 M202.437,399.135l0.628-1.596
		 M203.19,396.926l0.753-1.471 M204.319,394.352l0.629-1.596 M205.198,392.021l0.629-1.596 M206.831,387.852l0.628-1.596"/>
	
		<path id="path2432" sodipodi:nodetypes="ccccccccccccccccccccccccccccccccccccccccccccccccccccccccccccccccccccccccccccccccccccccccccccccccccccccccccccccccccccccccccccccccccc" fill="#F3D18D" stroke="#000000" d="
		M291.174,120.3l2.656,26.7l1.5-26.7l2.851,26.7l1.949-26.7l3,26.7l1.95-26.7l3.75,26.7l1.2-26.7l2.7,26.7l2.1-26.7l2.4,26.7
		l2.7-26.7l2.699,26.7l1.95-26.7l3,17.7l20.4,0.149L347.944,153h4.686v3.3h3.226l1.274-0.975V131.55l2.612,3.818l0.97-5.347
		l0.872,0.539l1.021-5.911l1.875,10.801l0.6-4.2l0.862,1.837l0.638-1.837l1.425,13.875l2.25-14.851l0.9,3.976l1.125-5.925l0.9,3.375
		l1.125,6.675l2.625-17.175l1.425,14.85l1.05-3.75l0.938,0.975l0.938-2.55l2.1,16.275l0.9-12.601l1.125,1.125l0.45-5.85l1.575-0.825
		l1.199-8.55l1.275,13.125l1.05-5.4l1.125,9l0.9-1.649l1.425,4.237l0.975-1.182l1.5,3.395v9.975l1.2,1.2h5.775l0.075,3.3h2.324
		l0.976-0.975v-22.5l1.274,1.574l1.351-0.75l-0.075-5.699l1.65,0.899l1.875-4.575l1.5,2.025l1.425,8.85l1.125-3.449l1.95,10.8
		l0.824-1.5l1.2,2.925l2.175-10.575l1.275-4.575l1.65,4.125l1.574-6.899l1.726,9.45l1.95-15.15l1.5,10.8l0.899-3.075l1.95,15.226
		l0.563-9.226l0.619,0.75l0.168-5.699l1.2-0.976l1.05-7.8l1.2,10.875l0.862-3.338l1.913,10.088l0.6-0.713l0.862,4.069l1.313,0.919
		l0.075,10.8h6.375v3.3h3.9l0.899-0.975V132.75l2.101,3.75l1.5-7.05l0.899-4.051l1.5,2.7l0.301-3.75l1.8-2.1l1.649,7.35l1.801-2.399
		l4.5,16.649l3.6-18.75l2.025,8.025l1.125-6.976l1.5,5.7l1.574-10.875l1.613,11.101l0.956-1.613l1.556,13.463l0.563-12.188
		l1.031,0.656l1.182-12.094l1.65,11.925l0.899-3.75l0.825,13.05l1.088-2.475l0.862,3.675l2.25,1.2V153h6.149l0.15,3.3h1.575
		l0.75-2.362v-20.663"/>
	<path id="path3230" fill="#F3D18D" stroke="#000000" d="M377.712,107.939v7.955l0,0"/>
	<path id="path3232" fill="#F3D18D" stroke="#000000" d="M427.245,107.939v7.955"/>
	<path id="path3234" fill="#F3D18D" stroke="#000000" d="M480.914,107.939v7.955l0,0"/>
	<path id="path3236" fill="#F3D18D" stroke="#000000" d="M485.476,107.939v7.955l0,0l0,0"/>
	<path id="path3238" fill="#F3D18D" stroke="#000000" d="M429.791,111.864h5.833"/>
	<path id="path3240" fill="#F3D18D" stroke="#000000" d="M380.576,188.549v7.955l0,0"/>
	<path id="path3242" fill="#F3D18D" stroke="#000000" d="M430.427,188.549v7.955l0,0"/>
	<path id="path3244" fill="#F3D18D" stroke="#000000" d="M476.035,188.549v7.955l0,0"/>
	<path id="path3246" fill="#F3D18D" stroke="#000000" d="M479.642,188.549v7.955l0,0"/>
	<path id="path3248" fill="#F3D18D" stroke="#000000" d="M434.086,193.853h5.834"/>
	<path id="path3254" sodipodi:nodetypes="ccccccccccccccc" fill="#F3D18D" stroke="#000000" d="M359.08,319.051l0.9-58.201
		l2.1,58.201l0.9-58.201l1.8,58.201l0.6-58.201l2.551,58.201l-0.15-58.201l3,58.201l0.45-58.201l2.55,58.201l0.3-58.201l2.25,58.201
		l-0.3-58.201l2.85,58.201"/>
	<path id="path3256" sodipodi:nodetypes="ccc" fill="#F3D18D" stroke="#000000" d="M433.181,319.051l1.5-58.201l1.844,58.201"/>
	<path id="path3258" sodipodi:nodetypes="cc" fill="#F3D18D" stroke="#000000" d="M185.382,441.299l251.866,0.15"/>
	<path id="path3266" fill="#F3D18D" stroke="#000000" d="M437.533,440.084v2.918l0,0l0,0"/>
	<rect id="rect3270" x="92.83" y="302.85" fill="#F3D18D" stroke="#000000" width="135.601" height="2.4"/>
	<path id="path3292" sodipodi:nodetypes="cc" fill="#F3D18D" stroke="#000000" d="M159.43,310.801v15.74"/>
	<path id="path3294" fill="#F3D18D" stroke="#000000" d="M229.78,312.75v16.801l0,0l0,0l0,0"/>
	<path id="path3298" sodipodi:nodetypes="cc" fill="#F3D18D" stroke="#000000" d="M166.323,312.965v6.111"/>
	<path id="path3300" sodipodi:nodetypes="cc" fill="#F3D18D" stroke="#000000" d="M196.764,312.939v6.111"/>
	<path id="path3302" sodipodi:nodetypes="cc" fill="#F3D18D" stroke="#000000" d="M210.128,314.047v6.109"/>
	<path id="path3304" sodipodi:nodetypes="cc" fill="#F3D18D" stroke="#000000" d="M213.946,314.047v6.109"/>
	<path id="path3308" sodipodi:nodetypes="cc" fill="#F3D18D" stroke="#000000" d="M169.233,315.828h4.963"/>
	<path id="path3312" sodipodi:nodetypes="cc" fill="#F3D18D" stroke="#000000" d="M175.995,315.828h6.111"/>
	<path id="path3314" sodipodi:nodetypes="cc" fill="#F3D18D" stroke="#000000" d="M183.102,315.828h6.111"/>
	<path id="path3316" sodipodi:nodetypes="cc" fill="#F3D18D" stroke="#000000" d="M189.625,315.828h5.579"/>
	<path id="path3318" sodipodi:nodetypes="cc" fill="#F3D18D" stroke="#000000" d="M199.87,316.57h5.137"/>
	<path id="path3320" sodipodi:nodetypes="cc" fill="#F3D18D" stroke="#000000" d="M163.989,323.783h4.963"/>
	<path id="path3324" sodipodi:nodetypes="cc" fill="#F3D18D" stroke="#000000" d="M170.099,323.783h4.963"/>
	<path id="path3326" sodipodi:nodetypes="cc" fill="#F3D18D" stroke="#000000" d="M176.569,323.783h4.963"/>
	<path id="path3328" sodipodi:nodetypes="cc" fill="#F3D18D" stroke="#000000" d="M183.145,323.783h4.963"/>
	<path id="path3330" sodipodi:nodetypes="cc" fill="#F3D18D" stroke="#000000" d="M189.339,323.783h4.963"/>
	<path id="path3332" sodipodi:nodetypes="cc" fill="#F3D18D" stroke="#000000" d="M195.131,323.783h4.963"/>
	<path id="path3334" sodipodi:nodetypes="cc" fill="#F3D18D" stroke="#000000" d="M201.389,323.783h4.963"/>
	<path id="path3336" sodipodi:nodetypes="cc" fill="#F3D18D" stroke="#000000" d="M208.071,323.783h4.963"/>
	<path id="path3338" sodipodi:nodetypes="cc" fill="#F3D18D" stroke="#000000" d="M214.435,323.783h4.963"/>
	<path id="path3340" sodipodi:nodetypes="cc" fill="#F3D18D" stroke="#000000" d="M221.329,323.783h4.963"/>
	<path id="path3342" sodipodi:nodetypes="cc" fill="#F3D18D" stroke="#000000" d="M163.989,329.551h4.963"/>
	<path id="path3344" sodipodi:nodetypes="cc" fill="#F3D18D" stroke="#000000" d="M170.099,329.551h4.963"/>
	<path id="path3346" sodipodi:nodetypes="cc" fill="#F3D18D" stroke="#000000" d="M176.781,329.551h4.963"/>
	<path id="path3348" sodipodi:nodetypes="cc" fill="#F3D18D" stroke="#000000" d="M183.251,329.551h4.963"/>
	<path id="path3368" sodipodi:nodetypes="cc" fill="#F3D18D" stroke="#000000" d="M189.339,329.551h4.963"/>
	<path id="path3370" sodipodi:nodetypes="cc" fill="#F3D18D" stroke="#000000" d="M195.066,329.551h4.963"/>
	<path id="path3372" sodipodi:nodetypes="cc" fill="#F3D18D" stroke="#000000" d="M201.324,329.551h4.963"/>
	<path id="path3374" sodipodi:nodetypes="cc" fill="#F3D18D" stroke="#000000" d="M208.112,329.551h4.963"/>
	<path id="path3376" sodipodi:nodetypes="cc" fill="#F3D18D" stroke="#000000" d="M214.37,329.551h4.963"/>
	<path id="path3378" sodipodi:nodetypes="cc" fill="#F3D18D" stroke="#000000" d="M221.265,329.551h4.963"/>
	<path id="path3380" sodipodi:nodetypes="cc" fill="#F3D18D" stroke="#000000" d="M163.989,335.344h4.963"/>
	<path id="path3386" sodipodi:nodetypes="cc" fill="#F3D18D" stroke="#000000" d="M170.035,335.344h4.963"/>
	<path id="path3388" sodipodi:nodetypes="cc" fill="#F3D18D" stroke="#000000" d="M176.993,335.344h4.963"/>
	<path id="path3390" sodipodi:nodetypes="cc" fill="#F3D18D" stroke="#000000" d="M183.081,335.344h4.963"/>
	<path id="path3392" sodipodi:nodetypes="cc" fill="#F3D18D" stroke="#000000" d="M189.339,335.344h4.963"/>
	<path id="path3394" sodipodi:nodetypes="cc" fill="#F3D18D" stroke="#000000" d="M195.066,335.344h4.963"/>
	<path id="path3396" sodipodi:nodetypes="cc" fill="#F3D18D" stroke="#000000" d="M201.324,335.344h4.963"/>
	<path id="path3398" sodipodi:nodetypes="cc" fill="#F3D18D" stroke="#000000" d="M208.112,335.344h4.963"/>
	<path id="path3400" sodipodi:nodetypes="cc" fill="#F3D18D" stroke="#000000" d="M214.37,335.344h4.963"/>
	<path id="path3402" sodipodi:nodetypes="cc" fill="#F3D18D" stroke="#000000" d="M221.265,335.344h4.963"/>
	<path id="path3404" sodipodi:nodetypes="cc" fill="#F3D18D" stroke="#000000" d="M163.989,341.02h4.963"/>
	<path id="path3408" sodipodi:nodetypes="cc" fill="#F3D18D" stroke="#000000" d="M170.035,341.02h4.963"/>
	<path id="path3410" sodipodi:nodetypes="cc" fill="#F3D18D" stroke="#000000" d="M176.717,341.02h4.963"/>
	<path id="path3412" sodipodi:nodetypes="cc" fill="#F3D18D" stroke="#000000" d="M183.081,341.02h4.963"/>
	<path id="path3422" fill="#F3D18D" stroke="#000000" d="M348.28,159.9v11.25"/>
	<path id="path3424" fill="#F3D18D" stroke="#000000" d="M407.83,159.9v12.525"/>
	<path id="path3440" fill="#F3D18D" stroke="#000000" d="M354.58,159.9c0,6.75,0,6.75,0,6.75l0,0"/>
	<path id="path3442" fill="#F3D18D" stroke="#000000" d="M364.105,159.9c0,6.75,0,6.75,0,6.75"/>
	<path id="path3444" fill="#F3D18D" stroke="#000000" d="M366.505,159.9c0,6.75,0,6.75,0,6.75"/>
	<path id="path3446" fill="#F3D18D" stroke="#000000" d="M375.806,159.9v6.75"/>
	<path id="path3448" fill="#F3D18D" stroke="#000000" d="M389.53,160.875v6.3v0.075"/>
	<path id="path3450" sodipodi:nodetypes="cc" fill="#F3D18D" stroke="#000000" d="M392.681,160.95v6.375"/>
	<path id="path3460" fill="#F3D18D" stroke="#000000" d="M356.455,163.725h5.025l0,0"/>
	<path id="path3462" fill="#F3D18D" stroke="#000000" d="M368.268,163.725h5.025l0,0"/>
	<path id="path3464" fill="#F3D18D" stroke="#000000" d="M377.712,163.725h5.025l0,0"/>
	<path id="path3466" fill="#F3D18D" stroke="#000000" d="M383.343,163.725h5.025l0,0"/>
	<path id="path3468" fill="#F3D18D" stroke="#000000" d="M393.918,163.725h5.024l0,0"/>
	<path id="path3470" fill="#F3D18D" stroke="#000000" d="M400.218,163.725h5.025l0,0"/>
	<path id="path3472" fill="#F3D18D" stroke="#000000" d="M352.105,170.55h5.024l0,0"/>
	<path id="path3474" fill="#F3D18D" stroke="#000000" d="M359.08,170.55h5.025l0,0"/>
	<path id="path3476" fill="#F3D18D" stroke="#000000" d="M365.905,170.55h5.025l0,0"/>
	<path id="path3480" fill="#F3D18D" stroke="#000000" d="M372.237,170.55h5.025l0,0"/>
	<path id="path3482" fill="#F3D18D" stroke="#000000" d="M378.543,170.55h5.024l0,0"/>
	<path id="path3484" fill="#F3D18D" stroke="#000000" d="M384.73,170.55h5.024l0,0"/>
	<path id="path3486" fill="#F3D18D" stroke="#000000" d="M391.181,170.55h5.024l0,0"/>
	<path id="path3488" fill="#F3D18D" stroke="#000000" d="M397.518,170.55h5.025l0,0"/>
	<path id="path3490" fill="#F3D18D" stroke="#000000" d="M365.905,175.575h5.025l0,0"/>
	<path id="path3492" fill="#F3D18D" stroke="#000000" d="M372.205,175.575h5.025l0,0"/>
	<path id="path3494" fill="#F3D18D" stroke="#000000" d="M378.505,175.575h5.025l0,0"/>
	<path id="path3496" fill="#F3D18D" stroke="#000000" d="M384.73,175.575h5.024l0,0"/>
	<path id="path3520" fill="#F3D18D" stroke="#000000" d="M365.053,254.098c3.801,0,3.894,0,3.894,0"/>
	<path id="path3522" fill="#F3D18D" stroke="#000000" d="M357.08,257.068c3.618,0,3.707,0,3.707,0"/>
	<path id="path3524" fill="#F3D18D" stroke="#000000" d="M361.668,257.068c3.619,0,3.707,0,3.707,0"/>
	<path id="path3526" fill="#F3D18D" stroke="#000000" d="M366.018,257.068c3.619,0,3.707,0,3.707,0"/>
	<path id="path3528" fill="#F3D18D" stroke="#000000" d="M363.075,251.778c0,3.802,0,3.895,0,3.895"/>
	<path id="path3530" fill="#F3D18D" stroke="#000000" d="M433.135,257.068c3.618,0,3.707,0,3.707,0"/>
	<path id="path3532" fill="#F3D18D" stroke="#000000" d="M434.616,256.323c0-3.618,0-3.707,0-3.707"/>
	<path id="path3536" fill="#F3D18D" stroke="#000000" d="M434.616,252.027c0-3.618,0-3.707,0-3.707"/>
	<path id="path3538" fill="#F3D18D" stroke="#000000" d="M434.616,247.681c0-3.619,0-3.707,0-3.707"/>
	<path id="path3540" fill="#F3D18D" stroke="#000000" d="M434.616,243.33c0-3.618,0-3.707,0-3.707"/>
	<path id="path3542" fill="#F3D18D" stroke="#000000" d="M434.616,238.877c0-3.618,0-3.707,0-3.707"/>
	<path id="path3544" fill="#F3D18D" stroke="#000000" d="M437.587,252.03c0-3.619,0-3.707,0-3.707"/>
	<path id="path3550" fill="#F3D18D" stroke="#000000" d="M437.587,247.681c0-3.619,0-3.707,0-3.707"/>
	<path id="path3552" fill="#F3D18D" stroke="#000000" d="M437.587,243.279c0-3.618,0-3.706,0-3.706"/>
	<path id="path3554" fill="#F3D18D" stroke="#000000" d="M437.533,238.877c0-3.618,0-3.707,0-3.707"/>
	<path id="path3560" sodipodi:nodetypes="cc" fill="#F3D18D" stroke="#000000" d="M149.135,105.722l0.621,6.079"/>
	<path id="path3562" sodipodi:nodetypes="cc" fill="#F3D18D" stroke="#000000" d="M115.658,118.675l4.032,4.592"/>
	<path id="path3564" sodipodi:nodetypes="cc" fill="#F3D18D" stroke="#000000" d="M143.96,106.644l1.09,6.013"/>
	<path id="path3566" sodipodi:nodetypes="cc" fill="#F3D18D" stroke="#000000" d="M223.099,140.377l-5.162,3.27"/>
	<path id="path3568" sodipodi:nodetypes="cc" fill="#F3D18D" stroke="#000000" d="M207.917,122.538l-3.748,4.825"/>
	<path id="path3570" sodipodi:nodetypes="cc" fill="#F3D18D" stroke="#000000" d="M204.47,120.018l-3.828,4.764"/>
	<path id="path3453" sodipodi:nodetypes="cc" fill="#F3D18D" stroke="#000000" d="M107.205,131.967l7.251-7.164"/>
	<path id="path3455" sodipodi:nodetypes="cc" fill="#F3D18D" stroke="#000000" d="M99.705,142.005l5.9-8.311"/>
	<path id="path3457" sodipodi:nodetypes="cc" fill="#F3D18D" stroke="#000000" d="M93.641,154.001l4.39-9.198"/>
	<path id="path3459" sodipodi:nodetypes="cc" fill="#F3D18D" stroke="#000000" d="M90.046,167.644l2.269-9.938"/>
	<path id="path3461" sodipodi:nodetypes="cc" fill="#F3D18D" stroke="#000000" d="M89.102,183.895L89.1,173.703"/>
	<path id="path3463" sodipodi:nodetypes="cc" fill="#F3D18D" stroke="#000000" d="M91.863,200.269l-2.097-9.975"/>
	<path id="path3465" sodipodi:nodetypes="cc" fill="#F3D18D" stroke="#000000" d="M97.387,214.016l-4.044-9.355"/>
	<path id="path3467" sodipodi:nodetypes="cc" fill="#F3D18D" stroke="#000000" d="M105.252,225.54l-5.88-8.325"/>
	<path id="path3469" sodipodi:nodetypes="cc" fill="#F3D18D" stroke="#000000" d="M116.643,236.836l-7.558-6.839"/>
	<path id="path3471" sodipodi:nodetypes="cc" fill="#F3D18D" stroke="#000000" d="M130.44,245.292l-8.951-4.875"/>
	<path id="path3473" sodipodi:nodetypes="cc" fill="#F3D18D" stroke="#000000" d="M142.083,249.329l-9.645-3.295"/>
	<path id="path3475" sodipodi:nodetypes="cc" fill="#F3D18D" stroke="#000000" d="M154.369,251.222l-10.14-1.037"/>
	<path id="path3477" sodipodi:nodetypes="cc" fill="#F3D18D" stroke="#000000" d="M166.593,251.571l-10.192,0.042"/>
	<path id="path3479" sodipodi:nodetypes="cc" fill="#F3D18D" stroke="#000000" d="M178.784,249.267l-9.968,2.131"/>
	<path id="path3481" sodipodi:nodetypes="cc" fill="#F3D18D" stroke="#000000" d="M189.374,245.458l-9.626,3.35"/>
	<path id="path3483" sodipodi:nodetypes="cc" fill="#F3D18D" stroke="#000000" d="M201.539,238.557l-8.702,5.308"/>
	<path id="path3485" sodipodi:nodetypes="cc" fill="#F3D18D" stroke="#000000" d="M211.777,229.023l-7.353,7.06"/>
	<path id="path3487" sodipodi:nodetypes="cc" fill="#F3D18D" stroke="#000000" d="M220.688,217.289l-5.635,8.494"/>
	<path id="path3489" sodipodi:nodetypes="cc" fill="#F3D18D" stroke="#000000" d="M222.33,214.345l4.233-9.271"/>
	<path id="path3491" sodipodi:nodetypes="cc" fill="#F3D18D" stroke="#000000" d="M122.091,119.109l8.913-4.944"/>
	<path id="path3493" sodipodi:nodetypes="cc" fill="#F3D18D" stroke="#000000" d="M132.478,113.518l9.565-3.521"/>
	<path id="path3495" sodipodi:nodetypes="cc" fill="#F3D18D" stroke="#000000" d="M162.509,108.759l-10.191-0.156"/>
	<path id="path3497" sodipodi:nodetypes="cc" fill="#F3D18D" stroke="#000000" d="M176.458,110.256l-10.088-1.452"/>
	<path id="path3499" sodipodi:nodetypes="cc" fill="#F3D18D" stroke="#000000" d="M188.899,114.447l-9.727-3.045"/>
	<path id="path3501" sodipodi:nodetypes="cc" fill="#F3D18D" stroke="#000000" d="M199.649,120.845l-8.78-5.178"/>
	<path id="path3503" sodipodi:nodetypes="cc" fill="#F3D18D" stroke="#000000" d="M213.163,132.871l-6.045-6.091"/>
	<path id="path3505" sodipodi:nodetypes="cc" fill="#F3D18D" stroke="#000000" d="M219.587,141.25l-5.267-7.016"/>
	
		<path id="path3517" sodipodi:ry="4.9161491" sodipodi:rx="5.9220195" sodipodi:cy="396.46585" sodipodi:cx="297.02905" sodipodi:type="arc" fill="#F3D18D" stroke="#000000" d="
		M233.279,158.97c0,4.2-3.171,7.605-7.083,7.605c-3.911,0-7.082-3.405-7.082-7.605c0-4.199,3.171-7.604,7.082-7.604
		C230.108,151.366,233.279,154.771,233.279,158.97z"/>
	
		<path id="path3519" sodipodi:ry="4.9161491" sodipodi:rx="5.9220195" sodipodi:cy="396.46585" sodipodi:cx="297.02905" sodipodi:type="arc" fill="#F3D18D" stroke="#000000" d="
		M231.783,159.092c0,3.344-2.524,6.055-5.64,6.055c-3.114,0-5.639-2.711-5.639-6.055s2.524-6.055,5.639-6.055
		C229.259,153.038,231.783,155.749,231.783,159.092z"/>
	<path id="rect3507" sodipodi:nodetypes="cszcsccscz" fill="#F3D18D" stroke="#000000" d="M221.83,151.313
		c0-1.069,0.976-1.051,4.411-1.069c3.464-0.019,4.411,0,4.439,1.069c0.027,1.068-0.038,36.468-0.038,36.468l-2.228,0.769v-5.808
		c0,0.027-4.361,0-4.361,0l0.037,5.808l-2.227-0.769C221.864,187.781,221.83,152.381,221.83,151.313z"/>
	<rect id="rect3514" x="224.591" y="182.763" fill="#F3D18D" stroke="#000000" width="3.183" height="8.273"/>
	<path id="path3521" fill="#F3D18D" stroke="#000000" d="M222.95,156.3v10.274l0,0"/>
	<path id="path3523" fill="#F3D18D" stroke="#000000" d="M222.913,168.788c0,8.167,0,8.273,0,8.273"/>
	<path id="path3527" fill="#F3D18D" stroke="#000000" d="M229.105,156.3v10.274l0,0"/>
	<path id="path3533" fill="#F3D18D" stroke="#000000" d="M229.12,168.788c0,8.167,0,8.273,0,8.273"/>
	<rect id="rect3535" x="224.862" y="156.717" fill="#F3D18D" stroke="#000000" width="2.534" height="6.6"/>
	<rect id="rect3537" x="224.665" y="170.55" fill="#F3D18D" stroke="#000000" width="2.652" height="5.024"/>
	<path id="path3541" sodipodi:nodetypes="czc" fill="#F3D18D" stroke="#000000" d="M222.022,187.781c0,0-0.934-9.089,4.1-9.089
		c5.034,0,4.521,9.089,4.521,9.089"/>
	<path id="path3547" fill="#F3D18D" stroke="#000000" d="M222.955,154.387c0,1.351,0,1.351,0,1.351"/>
	<path id="path3549" fill="#F3D18D" stroke="#000000" d="M229.105,154.688c0,0.899,0,0.862,0,0.862"/>
	<path id="path3551" fill="#F3D18D" stroke="#000000" d="M222.955,177.525c0,1.16,0,1.16,0,1.16l0,0"/>
	<path id="path3553" fill="#F3D18D" stroke="#000000" d="M229.105,177.6c0,1.463,0,1.425,0,1.425"/>
	<path id="path3557" sodipodi:nodetypes="csc" fill="#F3D18D" stroke="#000000" d="M221.83,153c0,0.543,0.862,0.714,4.163,0.717
		c3.6,0.003,4.688-0.154,4.688-0.717"/>
	<path id="rect3561" fill="#F3D18D" stroke="#000000" d="M223.067,151.087h6.338c0.332,0,0.6,0.269,0.6,0.601v0.75
		c0,0.331-0.268,0.6-0.6,0.6h-6.338c-0.331,0-0.6-0.269-0.6-0.6v-0.75C222.468,151.356,222.736,151.087,223.067,151.087z"/>
	<path id="path3513" sodipodi:nodetypes="cccccccc" fill="#F3D18D" stroke="#000000" d="M221.83,187.387l-2.362-2.254l2.138,0.326
		l-2.138-2.85l2.138,0.338l-2.138-3.113l2.362,0.615l0,0"/>
	<path id="path3515" sodipodi:nodetypes="cccccccc" fill="#F3D18D" stroke="#000000" d="M230.643,187.387l2.175-2.629l-1.949,0.338
		l1.949-2.48l-1.949,0.557l1.949-3.037l-2.175,0.314l0,0"/>
	
		<path id="path3558" sodipodi:ry="2.875" sodipodi:rx="4.984375" sodipodi:cy="506.83093" sodipodi:cx="297.85938" sodipodi:type="arc" fill="#F3D18D" stroke="#000000" d="
		M232.401,292.461c0,2.476-2.262,4.482-5.053,4.482c-2.79,0-5.053-2.007-5.053-4.482c0-2.477,2.263-4.483,5.053-4.483
		C230.14,287.978,232.401,289.985,232.401,292.461z"/>
	
		<path id="path3555" sodipodi:ry="2.875" sodipodi:rx="4.984375" sodipodi:cy="506.83093" sodipodi:cx="297.85938" sodipodi:type="arc" fill="#F3D18D" stroke="#000000" d="
		M232.866,292.358c0,2.82-2.506,5.106-5.596,5.106c-3.092,0-5.597-2.286-5.597-5.106c0-2.821,2.505-5.107,5.597-5.107
		C230.36,287.25,232.866,289.537,232.866,292.358z"/>
	<path id="rect3521" sodipodi:nodetypes="czcczzccccccz" fill="#F3D18D" stroke="#000000" d="M222.849,287.629
		c-0.009-0.825,0.601-1.274,1.576-1.725c0.975-0.45,2.1,0.825,2.1,0.825h1.537c0,0,1.275-1.275,2.213-0.825s1.521,0.817,1.537,1.725
		c0.018,0.907,0,10.987,0,10.987l-1.955,1.452v-5.155l-4.826,0.053v4.996l-2.182-1.346
		C222.849,298.617,222.858,288.455,222.849,287.629z"/>
	<path id="path3561" sodipodi:nodetypes="czc" fill="#F3D18D" stroke="#000000" d="M222.988,298.69c0,0-0.688-8.166,4.46-8.166
		c5.146,0,4.311,8.122,4.311,8.122"/>
	<path id="rect3563" sodipodi:nodetypes="ccccc" fill="#F3D18D" stroke="#000000" d="M225.743,295.079h3.471l0.037,5.693
		l-3.508-0.018V295.079z"/>
	<rect id="rect3570" x="222.39" y="295.782" fill="#F3D18D" stroke="#000000" width="0.565" height="2.27"/>
	<rect id="rect3572" x="231.918" y="295.782" fill="#F3D18D" stroke="#000000" width="0.565" height="2.27"/>
	<path id="path3580" sodipodi:nodetypes="ccc" fill="#F3D18D" stroke="#000000" d="M226.668,300.881l0.749,1.545l0.77-1.545"/>
</g>
</svg>
