<?xml version="1.0" encoding="utf-8"?>
<!-- Generator: Adobe Illustrator 16.0.0, SVG Export Plug-In . SVG Version: 6.00 Build 0)  -->
<!DOCTYPE svg PUBLIC "-//W3C//DTD SVG 1.1//EN" "http://www.w3.org/Graphics/SVG/1.1/DTD/svg11.dtd">
<svg version="1.1" id="Layer_1" xmlns="http://www.w3.org/2000/svg" xmlns:xlink="http://www.w3.org/1999/xlink" x="0px" y="0px"
	 width="300px" height="300px" viewBox="0 0 300 300" enable-background="new 0 0 300 300" xml:space="preserve">
<g>
	
		<path id="path2472" sodipodi:ry="53.209785" sodipodi:rx="51.442017" sodipodi:cy="420.73904" sodipodi:cx="260.03851" sodipodi:type="arc" fill="none" stroke="#F3D18C" stroke-width="4" d="
		M286.035,153.794c0,75.355-61.281,136.443-136.876,136.443S12.282,229.149,12.282,153.794c0-75.358,61.282-136.446,136.877-136.446
		S286.035,78.436,286.035,153.794z"/>
	<path id="path3560" sodipodi:nodetypes="cc" fill="none" stroke="#F3D18C" stroke-width="4" d="M127.643,1.771l1.259,12.325"/>
	<path id="path3562" sodipodi:nodetypes="cc" fill="none" stroke="#F3D18C" stroke-width="4" d="M59.766,28.034l8.175,9.31"/>
	<path id="path3564" sodipodi:nodetypes="cc" fill="none" stroke="#F3D18C" stroke-width="4" d="M117.15,3.641l2.211,12.19"/>
	<path id="path3566" sodipodi:nodetypes="cc" fill="none" stroke="#F3D18C" stroke-width="4" d="M277.608,72.036l-10.467,6.629"/>
	<path id="path3568" sodipodi:nodetypes="cc" fill="none" stroke="#F3D18C" stroke-width="4" d="M246.827,35.865l-7.6,9.784"/>
	<path id="path3570" sodipodi:nodetypes="cc" fill="none" stroke="#F3D18C" stroke-width="4" d="M239.836,30.756l-7.761,9.659"/>
	<path id="path3453" sodipodi:nodetypes="cc" fill="none" stroke="#F3D18C" stroke-width="4" d="M42.629,54.983l14.703-14.525"/>
	<path id="path3455" sodipodi:nodetypes="cc" fill="none" stroke="#F3D18C" stroke-width="4" d="M27.422,75.337l11.963-16.85"/>
	<path id="path3457" sodipodi:nodetypes="cc" fill="none" stroke="#F3D18C" stroke-width="4" d="M15.127,99.659l8.9-18.649"/>
	<path id="path3459" sodipodi:nodetypes="cc" fill="none" stroke="#F3D18C" stroke-width="4" d="M7.837,127.32l4.601-20.149"/>
	<path id="path3461" sodipodi:nodetypes="cc" fill="none" stroke="#F3D18C" stroke-width="4" d="M5.924,160.268l-0.005-20.664"/>
	<path id="path3463" sodipodi:nodetypes="cc" fill="none" stroke="#F3D18C" stroke-width="4" d="M11.521,193.469L7.27,173.246"/>
	<path id="path3465" sodipodi:nodetypes="cc" fill="none" stroke="#F3D18C" stroke-width="4" d="M22.722,221.339l-8.2-18.966"/>
	<path id="path3467" sodipodi:nodetypes="cc" fill="none" stroke="#F3D18C" stroke-width="4" d="M38.669,244.705l-11.923-16.879"/>
	<path id="path3469" sodipodi:nodetypes="cc" fill="none" stroke="#F3D18C" stroke-width="4" d="M61.764,267.609L46.44,253.745"/>
	<path id="path3471" sodipodi:nodetypes="cc" fill="none" stroke="#F3D18C" stroke-width="4" d="M89.738,284.759l-18.148-9.887"/>
	<path id="path3473" sodipodi:nodetypes="cc" fill="none" stroke="#F3D18C" stroke-width="4" d="M113.345,292.938l-19.555-6.681"/>
	<path id="path3475" sodipodi:nodetypes="cc" fill="none" stroke="#F3D18C" stroke-width="4" d="M138.256,296.778l-20.559-2.103"/>
	<path id="path3477" sodipodi:nodetypes="cc" fill="none" stroke="#F3D18C" stroke-width="4" d="M163.041,297.484l-20.666,0.086"/>
	<path id="path3479" sodipodi:nodetypes="cc" fill="none" stroke="#F3D18C" stroke-width="4" d="M187.758,292.815l-20.21,4.32"/>
	<path id="path3481" sodipodi:nodetypes="cc" fill="none" stroke="#F3D18C" stroke-width="4" d="M209.229,285.092l-19.518,6.792"/>
	<path id="path3483" sodipodi:nodetypes="cc" fill="none" stroke="#F3D18C" stroke-width="4" d="M233.896,271.098l-17.645,10.764"/>
	<path id="path3485" sodipodi:nodetypes="cc" fill="none" stroke="#F3D18C" stroke-width="4" d="M254.652,251.771l-14.907,14.311"/>
	<path id="path3487" sodipodi:nodetypes="cc" fill="none" stroke="#F3D18C" stroke-width="4" d="M272.721,227.978L261.297,245.2"/>
	<path id="path3489" sodipodi:nodetypes="cc" fill="none" stroke="#F3D18C" stroke-width="4" d="M276.049,222.011l8.584-18.8"/>
	<path id="path3491" sodipodi:nodetypes="cc" fill="none" stroke="#F3D18C" stroke-width="4" d="M72.811,28.913l18.072-10.024"/>
	<path id="path3493" sodipodi:nodetypes="cc" fill="none" stroke="#F3D18C" stroke-width="4" d="M93.87,17.577l19.395-7.14"/>
	<path id="path3495" sodipodi:nodetypes="cc" fill="none" stroke="#F3D18C" stroke-width="4" d="M154.758,7.929l-20.662-0.317"/>
	<path id="path3497" sodipodi:nodetypes="cc" fill="none" stroke="#F3D18C" stroke-width="4" d="M183.042,10.964L162.587,8.02"/>
	<path id="path3499" sodipodi:nodetypes="cc" fill="none" stroke="#F3D18C" stroke-width="4" d="M208.267,19.46l-19.722-6.173"/>
	<path id="path3501" sodipodi:nodetypes="cc" fill="none" stroke="#F3D18C" stroke-width="4" d="M230.064,32.434l-17.804-10.498"/>
	<path id="path3503" sodipodi:nodetypes="cc" fill="none" stroke="#F3D18C" stroke-width="4" d="M257.463,56.815l-12.257-12.349"/>
	<path id="path3505" sodipodi:nodetypes="cc" fill="none" stroke="#F3D18C" stroke-width="4" d="M270.488,73.804L259.811,59.58"/>
	
		<path id="path3517_2_" sodipodi:ry="4.9161491" sodipodi:rx="5.9220195" sodipodi:cy="396.46585" sodipodi:cx="297.02905" sodipodi:type="arc" fill="none" stroke="#F3D18C" stroke-width="4" d="
		M298.25,109.733"/>
	
		<path id="path3519_2_" sodipodi:ry="4.9161491" sodipodi:rx="5.9220195" sodipodi:cy="396.46585" sodipodi:cx="297.02905" sodipodi:type="arc" fill="none" stroke="#F3D18C" stroke-width="4" d="
		M295.218,109.981"/>
	<path id="path3521_2_" fill="none" stroke="#F3D18C" stroke-width="4" d="M277.307,125.151L277.307,125.151"/>
	<path id="path3521_1_" fill="none" stroke="#F3D18C" stroke-width="4" d="M277.307,104.32"/>
	<path id="path3523_1_" fill="none" stroke="#F3D18C" stroke-width="4" d="M277.231,129.639"/>
	<path id="path3527_2_" fill="none" stroke="#F3D18C" stroke-width="4" d="M289.786,125.151L289.786,125.151"/>
	<path id="path3527_1_" fill="none" stroke="#F3D18C" stroke-width="4" d="M289.786,104.32"/>
	<path id="path3533_2_" fill="none" stroke="#F3D18C" stroke-width="4" d="M289.816,146.414"/>
	<path id="path3533_1_" fill="none" stroke="#F3D18C" stroke-width="4" d="M289.816,129.639"/>
	<path id="path3541_4_" sodipodi:nodetypes="czc" fill="none" stroke="#F3D18C" stroke-width="4" d="M292.903,168.147"/>
	<path id="path3541_3_" sodipodi:nodetypes="czc" fill="none" stroke="#F3D18C" stroke-width="4" d="M283.737,149.72"/>
	<path id="path3541_1_" sodipodi:nodetypes="czc" fill="none" stroke="#F3D18C" stroke-width="4" d="M275.426,168.147"/>
	<path id="path3547_2_" fill="none" stroke="#F3D18C" stroke-width="4" d="M277.316,103.18"/>
	<path id="path3547_1_" fill="none" stroke="#F3D18C" stroke-width="4" d="M277.316,100.441"/>
	<path id="path3553_2_" fill="none" stroke="#F3D18C" stroke-width="4" d="M289.786,150.396"/>
	<path id="path3553_1_" fill="none" stroke="#F3D18C" stroke-width="4" d="M289.786,147.507"/>
	<path id="path3513_1_" sodipodi:nodetypes="cccccccc" fill="none" stroke="#F3D18C" stroke-width="4" d="M275.035,167.35"/>
</g>
</svg>
